<svg xmlns="http://www.w3.org/2000/svg" height="599pt" version="1.1" viewBox="0 0 599 599.04429" width="599pt">
<g id="surface1">
<path d="M 169.714844 159.703125 L 169.714844 239.558594 L 189.675781 239.558594 L 189.675781 159.703125 L 279.511719 159.703125 L 279.511719 139.742188 L 189.675781 139.742188 L 189.675781 49.902344 L 169.714844 49.902344 L 169.714844 139.742188 L 79.875 139.742188 L 79.875 159.703125 Z M 169.714844 159.703125 " style=" stroke:none;fill-rule:nonzero;fill:rgb(0%,0%,0%);fill-opacity:1;" />
<path d="M 598.609375 317.84375 C 598.632812 317.476562 598.632812 317.109375 598.609375 316.738281 L 548.699219 137.066406 C 547.496094 132.726562 543.539062 129.738281 539.039062 129.757812 L 369.347656 129.757812 L 369.347656 99.8125 C 369.347656 94.300781 364.878906 89.832031 359.367188 89.832031 L 316.832031 89.832031 C 293.058594 35.273438 239.207031 0 179.695312 0 C 120.183594 0 66.332031 35.273438 42.558594 89.832031 L 10.003906 89.832031 C 4.492188 89.832031 0.0234375 94.300781 0.0234375 99.8125 L 0.0234375 449.175781 C 0.0234375 454.6875 4.492188 459.160156 10.003906 459.160156 L 48.34375 459.160156 C 30.007812 500.996094 42.414062 549.945312 78.46875 578 C 114.519531 606.058594 165.015625 606.058594 201.066406 578 C 237.121094 549.945312 249.527344 500.996094 231.191406 459.160156 L 367.761719 459.160156 C 349.425781 500.996094 361.832031 549.945312 397.886719 578 C 433.9375 606.058594 484.433594 606.058594 520.484375 578 C 556.539062 549.945312 568.945312 500.996094 550.609375 459.160156 L 588.949219 459.160156 C 594.460938 459.160156 598.929688 454.6875 598.929688 449.175781 L 598.929688 319.414062 C 598.871094 318.882812 598.765625 318.355469 598.609375 317.84375 Z M 531.457031 149.722656 L 575.824219 309.429688 L 369.347656 309.429688 L 369.347656 149.722656 Z M 179.695312 19.957031 C 251.359375 19.957031 309.457031 78.054688 309.457031 149.722656 C 309.457031 221.390625 251.359375 279.484375 179.695312 279.484375 C 108.027344 279.484375 49.929688 221.390625 49.929688 149.722656 C 50.015625 78.089844 108.0625 20.042969 179.695312 19.957031 Z M 139.765625 578.941406 C 95.664062 578.941406 59.914062 543.183594 59.914062 499.085938 C 59.914062 454.980469 95.664062 419.230469 139.765625 419.230469 C 183.871094 419.230469 219.621094 454.980469 219.621094 499.085938 C 219.574219 543.164062 183.847656 578.890625 139.765625 578.941406 Z M 459.1875 578.941406 C 415.082031 578.941406 379.332031 543.183594 379.332031 499.085938 C 379.332031 454.980469 415.082031 419.230469 459.1875 419.230469 C 503.289062 419.230469 539.039062 454.980469 539.039062 499.085938 C 538.992188 543.164062 503.265625 578.890625 459.1875 578.941406 Z M 578.96875 439.195312 L 538.851562 439.195312 C 520.082031 414.066406 490.550781 399.269531 459.1875 399.269531 C 427.820312 399.269531 398.289062 414.066406 379.519531 439.195312 L 219.433594 439.195312 C 200.664062 414.066406 171.132812 399.269531 139.765625 399.269531 C 108.402344 399.269531 78.871094 414.066406 60.101562 439.195312 L 19.984375 439.195312 L 19.984375 109.796875 L 35.539062 109.796875 C 18.410156 170.8125 41.558594 236.003906 93.332031 272.566406 C 145.105469 309.121094 214.285156 309.121094 266.054688 272.566406 C 317.832031 236.003906 340.976562 170.8125 323.851562 109.796875 L 349.386719 109.796875 L 349.386719 319.414062 C 349.386719 324.925781 353.855469 329.394531 359.367188 329.394531 L 578.96875 329.394531 Z M 578.96875 439.195312 " style=" stroke:none;fill-rule:nonzero;fill:rgb(0%,0%,0%);fill-opacity:1;" />
<path d="M 139.765625 459.160156 C 117.71875 459.160156 99.839844 477.03125 99.839844 499.085938 C 99.839844 521.136719 117.71875 539.011719 139.765625 539.011719 C 161.816406 539.011719 179.695312 521.136719 179.695312 499.085938 C 179.695312 477.03125 161.816406 459.160156 139.765625 459.160156 Z M 139.765625 519.050781 C 128.742188 519.050781 119.804688 510.109375 119.804688 499.085938 C 119.804688 488.0625 128.742188 479.121094 139.765625 479.121094 C 150.792969 479.121094 159.730469 488.0625 159.730469 499.085938 C 159.730469 510.109375 150.792969 519.050781 139.765625 519.050781 Z M 139.765625 519.050781 " style=" stroke:none;fill-rule:nonzero;fill:rgb(0%,0%,0%);fill-opacity:1;" />
<path d="M 459.1875 459.160156 C 437.136719 459.160156 419.257812 477.03125 419.257812 499.085938 C 419.257812 521.136719 437.136719 539.011719 459.1875 539.011719 C 481.234375 539.011719 499.113281 521.136719 499.113281 499.085938 C 499.113281 477.03125 481.234375 459.160156 459.1875 459.160156 Z M 459.1875 519.050781 C 448.160156 519.050781 439.222656 510.109375 439.222656 499.085938 C 439.222656 488.0625 448.160156 479.121094 459.1875 479.121094 C 470.210938 479.121094 479.148438 488.0625 479.148438 499.085938 C 479.148438 510.109375 470.210938 519.050781 459.1875 519.050781 Z M 459.1875 519.050781 " style=" stroke:none;fill-rule:nonzero;fill:rgb(0%,0%,0%);fill-opacity:1;" />
</g>
</svg>