<svg height="512pt" viewBox="0 -45 512 512" width="512pt" xmlns="http://www.w3.org/2000/svg"><path d="m472 313.863281v-205.726562c23.058594-6.558594 40-27.847657 40-53.027344 0-30.386719-24.671875-55.109375-55-55.109375s-55 24.722656-55 55.109375c0 25.179687 16.941406 46.46875 40 53.027344v92.863281h-172v-92.863281c23.058594-6.558594 40-27.847657 40-53.027344 0-30.386719-24.671875-55.109375-55-55.109375s-55 24.722656-55 55.109375c0 25.179687 16.941406 46.46875 40 53.027344v92.863281h-144.570312c-14.023438 0-25.429688-11.40625-25.429688-25.429688v-67.4375c23.058594-6.558593 40-27.847656 40-53.023437 0-30.386719-24.671875-55.109375-55-55.109375s-55 24.722656-55 55.109375c0 25.179687 16.941406 46.46875 40 53.027344v67.433593c0 30.566407 24.863281 55.429688 55.429688 55.429688h144.570312v82.863281c-23.058594 6.558594-40 27.847657-40 53.027344 0 30.386719 24.671875 55.109375 55 55.109375s55-24.722656 55-55.109375c0-25.179687-16.941406-46.46875-40-53.027344v-82.863281h172v82.863281c-23.058594 6.558594-40 27.847657-40 53.027344 0 30.386719 24.671875 55.109375 55 55.109375s55-24.722656 55-55.109375c0-25.179687-16.941406-46.46875-40-53.027344zm-242-258.753906c0-13.84375 11.214844-25.109375 25-25.109375s25 11.265625 25 25.109375-11.214844 25.109375-25 25.109375-25-11.265625-25-25.109375zm-200 0c0-13.84375 11.214844-25.109375 25-25.109375s25 11.265625 25 25.109375-11.214844 25.109375-25 25.109375-25-11.265625-25-25.109375zm250 311.78125c0 13.84375-11.214844 25.109375-25 25.109375s-25-11.265625-25-25.109375 11.214844-25.109375 25-25.109375 25 11.265625 25 25.109375zm152-311.78125c0-13.84375 11.214844-25.109375 25-25.109375s25 11.265625 25 25.109375-11.214844 25.109375-25 25.109375-25-11.265625-25-25.109375zm25 336.890625c-13.785156 0-25-11.265625-25-25.109375s11.214844-25.109375 25-25.109375 25 11.265625 25 25.109375-11.214844 25.109375-25 25.109375zm0 0"/></svg>